<svg width="2189" height="2189" viewBox="0 0 2189 2189" fill="none" xmlns="http://www.w3.org/2000/svg">
<circle cx="1094.5" cy="1094.5" r="1071" stroke="black" stroke-width="47"/>
<path d="M1292.77 580.146C1318.8 596.851 1357.79 633.732 1347.81 667.972C1342.32 686.786 1303.86 710.443 1289.38 725.593C1241.85 775.314 1242.84 817.913 1289.27 867.91C1344.53 927.427 1414.29 938.34 1480.89 980.256C1485.28 983.014 1494.34 993.906 1498.46 987.911L1512.14 948.401C1543.72 866.281 1623.6 804.231 1688.62 900.256C1739.8 975.849 1778.94 1110.87 1799.17 1199.65C1805.99 1229.52 1824.6 1295.31 1809.34 1322.2C1791.59 1353.49 1737.2 1371.39 1705.41 1381.18C1700.3 1382.97 1663.87 1386.61 1662.49 1388.29C1660.62 1390.56 1662.29 1438.92 1661.51 1446.93C1645.75 1605.46 1510.5 1702.96 1378.34 1765.32C1370.15 1769.18 1331.67 1782.62 1328.61 1787.44C1325.78 1791.91 1327.73 1811.43 1326.04 1819.5C1312.29 1885.38 1247.68 1913.2 1186.11 1918.06C1124.89 1922.89 1051.58 1917.18 990.519 1913.54C940.393 1901.98 887.191 1873.46 880.185 1816.26C879.152 1807.82 883.273 1788.88 875.735 1784.51C872.221 1782.48 869.56 1783.47 867.217 1782.38C724.592 1716.25 566.624 1629.24 545.852 1453.22C544.638 1442.92 546.98 1390.17 544.67 1387.86C543.669 1386.86 520.256 1387.23 516.477 1386.78C477.584 1382.02 402.225 1357.92 381.336 1322.82C369.912 1303.63 376.162 1278.77 379.547 1258.42C392.27 1181.86 413 1107.58 439.819 1035.48C458.1 986.325 502.221 865.057 559.118 853.473C632.049 838.621 669.153 924.509 689.734 978.244C691.895 983.898 693.694 992.979 695.536 999.037L697.453 1000.42C718.693 985.197 740.509 970.206 763.719 957.994C804.752 936.402 854.846 924.744 889.554 895.379C936.273 855.847 976.252 805.392 934.846 745.918C899.467 695.111 810.448 674.414 886.999 601.089C951.306 539.496 1048.9 538.208 1132.98 539.273C1187.69 539.965 1246.08 550.165 1292.81 580.168L1292.77 580.146ZM578.495 938.819C577.59 938.318 575.439 938.212 574.63 938.755C573.001 939.851 556.786 968.555 554.699 972.569C514.539 1049.99 473.985 1177.47 460.634 1263.92C460.091 1267.45 458.643 1283.09 460.538 1285.12C461.507 1286.16 483.961 1295.01 486.964 1295.96C491.925 1297.53 501.965 1300.34 506.98 1301.49C511.686 1302.57 545.809 1307.78 548.194 1306.98C550.579 1306.18 550.451 1284.5 551.143 1279.88C557.116 1240.25 569.371 1192.24 584.01 1155.17C595.956 1124.94 613.289 1097.74 629.802 1069.92C623.776 1035.34 610.638 1003.73 598.713 971.26C593.273 965.66 584.308 942.034 578.495 938.808V938.819ZM1613.23 938.648C1604.14 939.947 1578.59 1004.51 1574.95 1015.41C1573.34 1020.24 1570.6 1027.03 1569.4 1031.16C1568.64 1033.75 1563.61 1052.7 1563.77 1053.86C1564.17 1056.65 1580.62 1076.26 1583.62 1080.88C1622.66 1140.76 1644.66 1210.73 1656.05 1281.02C1656.71 1285.13 1656.19 1301.45 1657.75 1303.82C1659.91 1307.12 1698 1297.46 1703.88 1295.55C1706.94 1294.56 1728.71 1286.15 1729.68 1285.15C1732.17 1282.56 1730.17 1264.19 1729.41 1259.83C1713.77 1170.14 1670.85 1031.05 1624.69 952.521C1623.32 950.19 1615.49 938.34 1613.23 938.67V938.648Z" fill="black"/>
<path d="M1160.44 247.175C1281.2 314.953 1216.39 498.942 1075.51 476.392C996.534 463.744 955.597 364.781 991.019 297.343C1022.56 237.327 1101.65 214.181 1160.44 247.175Z" fill="black"/>
</svg>
