<svg width="1720" height="227" viewBox="0 0 1720 227" fill="none" xmlns="http://www.w3.org/2000/svg">
<path d="M146.743 30.1049L206.081 195.464H230.514V222.806H144.126V195.464H172.776L155.76 145.725H76.2077L59.1919 195.464H86.9699V222.806H-6.00517e-06V195.464H26.4691L85.5155 30.1049H59.1919V3.63585H173.067V30.1049H146.743ZM116.784 30.1049H115.766L84.7884 119.984H147.034L116.784 30.1049ZM409.689 61.0825C409.689 75.1412 405.714 86.9699 397.764 96.5685C389.813 106.07 378.712 112.615 364.459 116.202L403.145 195.464H429.905V222.806H380.748L332.318 120.711H301.631V195.464H329.555V222.806H238.804V195.464H268.472V30.9776H238.804V3.63585H329.846C358.06 3.63585 378.421 8.24128 390.928 17.4521C403.436 26.663 409.689 41.2065 409.689 61.0825ZM375.512 60.5008C375.512 50.3204 372.313 42.8547 365.913 38.1038C359.514 33.353 349.382 30.9776 335.518 30.9776H301.631V93.2236H333.481C347.734 93.2236 358.302 90.7512 365.186 85.8064C372.07 80.8616 375.512 72.4264 375.512 60.5008ZM593.519 83.7703V30.9776H548.288V195.464H576.794V222.806H487.206V195.464H515.129V30.9776H470.19V83.7703H443.139V3.63585H620.569V83.7703H593.519ZM696.632 30.9776V195.464H720.483V222.806H639.767V195.464H663.473V30.9776H639.767V3.63585H720.483V30.9776H696.632ZM878.57 67.6271V30.9776H796.4V95.9868H867.226V123.329H796.4V195.464H824.323V222.806H735.608V195.464H763.241V30.9776H735.608V3.63585H905.621V67.6271H878.57ZM1041.46 30.1049L1100.79 195.464H1125.23V222.806H1038.84V195.464H1067.49L1050.47 145.725H970.921L953.905 195.464H981.683V222.806H894.713V195.464H921.183L980.229 30.1049H953.905V3.63585H1067.78V30.1049H1041.46ZM1011.5 30.1049H1010.48L979.502 119.984H1041.75L1011.5 30.1049ZM1312.26 27.778V3.63585H1340.18V73.8808H1311.67C1304.5 59.8221 1294.66 48.866 1282.15 41.0125C1269.64 33.1591 1255.92 29.2323 1240.99 29.2323C1226.55 29.2323 1213.65 33.0621 1202.31 40.7217C1190.96 48.2843 1182.09 58.4647 1175.69 71.2629C1169.39 83.9642 1166.24 97.6351 1166.24 112.275C1166.24 127.401 1169.54 141.362 1176.13 154.161C1182.82 166.959 1191.98 177.188 1203.62 184.847C1215.25 192.507 1228.19 196.337 1242.45 196.337C1260 196.337 1275.51 191.004 1288.99 180.339C1302.46 169.577 1312.3 154.355 1318.51 134.672L1346.43 149.507C1338.87 173.94 1325.49 192.895 1306.29 206.372C1287.19 219.752 1264.75 226.442 1238.96 226.442C1217.72 226.442 1198.87 221.4 1182.38 211.316C1165.9 201.136 1153.05 187.514 1143.84 170.449C1134.73 153.288 1130.17 134.478 1130.17 114.021C1130.17 91.8177 1134.83 72.0386 1144.13 54.6834C1153.54 37.3282 1166.48 23.8997 1182.96 14.398C1199.45 4.79933 1218.31 -1.06692e-05 1239.54 -1.06692e-05C1253.79 -1.06692e-05 1266.93 2.37542 1278.95 7.12628C1290.97 11.8771 1302.08 18.761 1312.26 27.778ZM1521.1 83.7703V30.9776H1475.87V195.464H1504.38V222.806H1414.79V195.464H1442.71V30.9776H1397.77V83.7703H1370.72V3.63585H1548.15V83.7703H1521.1ZM1681.37 17.3067V2.32694H1708.13V68.7905H1681.37V53.6653C1670.03 36.601 1654.51 28.0689 1634.83 28.0689C1622.81 28.0689 1613.6 30.4928 1607.2 35.3406C1600.8 40.1884 1597.6 47.1693 1597.6 56.2832C1597.6 65.0092 1600.6 71.6508 1606.62 76.2077C1612.72 80.7647 1622.03 84.6429 1634.54 87.8425L1660.28 94.6779C1676.67 99.0409 1689.22 104.81 1697.95 111.985C1706.77 119.159 1712.49 126.77 1715.11 134.818C1717.82 142.865 1719.18 151.834 1719.18 161.723C1719.18 181.599 1712.98 197.355 1700.57 208.989C1688.16 220.624 1671.53 226.442 1650.68 226.442C1630.81 226.442 1612.72 219.17 1596.44 204.626V222.806H1569.09V142.962H1596.44V162.305C1609.52 186.35 1626.59 198.373 1647.63 198.373C1659.94 198.373 1669.49 195.222 1676.28 188.92C1683.07 182.52 1686.46 173.552 1686.46 162.014C1686.46 146.307 1675.41 135.4 1653.3 129.291L1625.96 121.583C1606.28 115.96 1591.73 108.349 1582.33 98.7501C1572.92 89.1514 1568.22 76.4986 1568.22 60.7916C1568.22 41.4973 1573.89 26.566 1585.24 15.9978C1596.68 5.33259 1612.43 -1.06692e-05 1632.5 -1.06692e-05C1649.96 -1.06692e-05 1666.24 5.76889 1681.37 17.3067Z" fill="#231F20"/>
</svg>
